<svg xmlns="http://www.w3.org/2000/svg" width="1600" height="900" viewBox="0 0 1600 900" role="img" aria-labelledby="title desc">
  <title id="title">Eesti Raha</title>
  <desc id="desc">Stylized budget flow preview card</desc>
  <defs>
    <linearGradient id="bg" x1="0%" y1="0%" x2="100%" y2="100%">
      <stop offset="0%" stop-color="#0b1f3a"/>
      <stop offset="100%" stop-color="#134b6f"/>
    </linearGradient>
    <linearGradient id="flow" x1="0%" y1="0%" x2="100%" y2="0%">
      <stop offset="0%" stop-color="#29b6f6"/>
      <stop offset="100%" stop-color="#66bb6a"/>
    </linearGradient>
  </defs>

  <rect width="1600" height="900" fill="url(#bg)"/>
  <circle cx="1380" cy="140" r="240" fill="#1f5f8a" opacity="0.35"/>
  <circle cx="180" cy="760" r="290" fill="#1e88e5" opacity="0.15"/>

  <g fill="none" stroke="url(#flow)" stroke-linecap="round" opacity="0.85">
    <path d="M220 250 C480 250, 520 450, 800 450" stroke-width="18"/>
    <path d="M220 380 C500 380, 560 450, 800 450" stroke-width="28"/>
    <path d="M220 530 C500 530, 560 450, 800 450" stroke-width="20"/>
    <path d="M800 450 C1040 450, 1080 300, 1360 300" stroke-width="24"/>
    <path d="M800 450 C1040 450, 1080 450, 1360 450" stroke-width="34"/>
    <path d="M800 450 C1040 450, 1080 600, 1360 600" stroke-width="22"/>
  </g>

  <g fill="#d7f3ff">
    <rect x="160" y="210" width="60" height="80" rx="12"/>
    <rect x="160" y="340" width="60" height="80" rx="12"/>
    <rect x="160" y="490" width="60" height="80" rx="12"/>
    <rect x="770" y="400" width="60" height="100" rx="12"/>
    <rect x="1360" y="260" width="60" height="80" rx="12"/>
    <rect x="1360" y="410" width="60" height="80" rx="12"/>
    <rect x="1360" y="560" width="60" height="80" rx="12"/>
  </g>

  <text x="160" y="120" fill="#ffffff" font-family="Arial, sans-serif" font-size="86" font-weight="700">Eesti Raha</text>
  <text x="160" y="176" fill="#c8e6ff" font-family="Arial, sans-serif" font-size="36">Estonian Budget Flow</text>
</svg>
